<svg width="80" height="80" viewBox="0 0 80 80" fill="none" xmlns="http://www.w3.org/2000/svg">
<path d="M63.323 66.6668C34.8864 66.7068 13.303 44.8668 13.333 16.6768C13.333 14.8335 14.8264 13.3335 16.6664 13.3335H25.4664C27.1164 13.3335 28.5197 14.5468 28.763 16.1802C29.3434 20.097 30.4828 23.9103 32.1464 27.5035L32.4897 28.2435C32.7203 28.7415 32.7699 29.3043 32.63 29.8349C32.49 30.3656 32.1693 30.8307 31.723 31.1502C28.9964 33.0968 27.9564 37.0135 30.0797 40.0668C32.753 43.9113 36.0895 47.2489 39.933 49.9235C42.9897 52.0435 46.9064 51.0035 48.8497 48.2802C49.1688 47.8326 49.6343 47.5106 50.1658 47.37C50.6972 47.2294 51.261 47.279 51.7597 47.5102L52.4964 47.8502C56.0897 49.5168 59.903 50.6568 63.8197 51.2368C65.453 51.4802 66.6664 52.8835 66.6664 54.5368V63.3335C66.6664 63.7715 66.58 64.2052 66.4123 64.6099C66.2446 65.0145 65.9988 65.3821 65.6889 65.6917C65.379 66.0013 65.0111 66.2467 64.6063 66.4141C64.2015 66.5814 63.7677 66.6673 63.3297 66.6668H63.323Z" fill="white"/>
</svg>
