<svg width="50" height="50" viewBox="0 0 50 50" fill="none" xmlns="http://www.w3.org/2000/svg">
<path d="M27.5292 25L40.3466 9.72168C40.5614 9.46777 40.3808 9.08203 40.0487 9.08203H36.1522C35.9228 9.08203 35.703 9.18457 35.5517 9.36035L24.9804 21.9629L14.4091 9.36035C14.2626 9.18457 14.0429 9.08203 13.8085 9.08203H9.91201C9.57998 9.08203 9.39932 9.46777 9.61416 9.72168L22.4315 25L9.61416 40.2783C9.56603 40.3349 9.53516 40.4041 9.5252 40.4778C9.51524 40.5514 9.52662 40.6263 9.55798 40.6937C9.58934 40.761 9.63936 40.8179 9.70212 40.8577C9.76488 40.8975 9.83772 40.9184 9.91201 40.918H13.8085C14.038 40.918 14.2577 40.8154 14.4091 40.6396L24.9804 28.0371L35.5517 40.6396C35.6981 40.8154 35.9179 40.918 36.1522 40.918H40.0487C40.3808 40.918 40.5614 40.5322 40.3466 40.2783L27.5292 25Z" fill="white"/>
</svg>
